<svg aria-hidden="true" style="position: absolute; width: 0; height: 0; overflow: hidden;" version="1.1" xmlns="http://www.w3.org/2000/svg" xmlns:xlink="http://www.w3.org/1999/xlink">
<defs>
<symbol id="icon-facebook" viewBox="0 0 32 32">
<path stroke-linejoin="miter" stroke-linecap="butt" stroke-miterlimit="4" stroke-width="0.9412" d="M9.412 0.471h13.176c4.938 0 8.941 4.003 8.941 8.941v13.176c0 4.938-4.003 8.941-8.941 8.941h-13.176c-4.938 0-8.941-4.003-8.941-8.941v-13.176c0-4.938 4.003-8.941 8.941-8.941z"></path>
<path d="M17.864 9.986h0.508v1.906h-0.635c-0.254 0-0.508 0-0.635 0.127s-0.127 0.254-0.127 0.551v0.678h1.398v1.609h-1.398v6.988h-2.16v-7.031h-1.144v-1.609h1.144v-0.551c0-0.932 0.127-1.609 0.381-1.906 0.381-0.551 1.144-0.805 2.287-0.805 0.127 0.042 0.254 0.042 0.381 0.042z"></path>
</symbol>
<symbol id="icon-instagram" viewBox="0 0 32 32">
<path stroke-linejoin="miter" stroke-linecap="butt" stroke-miterlimit="4" stroke-width="0.9412" d="M9.412 0.471h13.176c4.938 0 8.941 4.003 8.941 8.941v13.176c0 4.938-4.003 8.941-8.941 8.941h-13.176c-4.938 0-8.941-4.003-8.941-8.941v-13.176c0-4.938 4.003-8.941 8.941-8.941z"></path>
<path d="M22.733 13.224c-0.008-0.6-0.123-1.171-0.327-1.698l0.011 0.033c-0.361-0.911-1.070-1.619-1.959-1.97l-0.023-0.008c-0.487-0.188-1.051-0.303-1.64-0.315l-0.005-0c-0.725-0.032-0.953-0.041-2.791-0.041s-2.073 0-2.792 0.041c-0.594 0.012-1.158 0.127-1.679 0.327l0.034-0.011c-0.912 0.359-1.621 1.067-1.973 1.955l-0.008 0.023c-0.189 0.486-0.304 1.049-0.315 1.637l-0 0.005c-0.033 0.725-0.042 0.953-0.042 2.788s0 2.070 0.042 2.788c0.011 0.562 0.118 1.116 0.315 1.643 0.361 0.911 1.070 1.618 1.959 1.969l0.024 0.008c0.524 0.204 1.080 0.32 1.644 0.339 0.725 0.032 0.954 0.041 2.792 0.041s2.073 0 2.792-0.042c0.594-0.012 1.158-0.126 1.679-0.326l-0.034 0.011c0.912-0.36 1.62-1.067 1.973-1.955l0.008-0.023c0.189-0.487 0.303-1.050 0.315-1.638l0-0.005c0.033-0.723 0.042-0.952 0.042-2.788-0.002-1.835-0.002-2.068-0.043-2.786zM15.994 19.458c-0.001 0-0.002 0-0.003 0-1.919 0-3.474-1.555-3.476-3.473v-0c0.001-1.919 1.557-3.474 3.476-3.474 0.001 0 0.002 0 0.003 0h-0c0.001 0 0.002 0 0.003 0 1.919 0 3.475 1.554 3.477 3.473v0c-0.002 1.919-1.558 3.473-3.477 3.473-0.001 0-0.002 0-0.003 0h0zM19.612 13.192c-0.447 0-0.81-0.363-0.81-0.81s0.363-0.81 0.81-0.81v0c0.447 0 0.809 0.362 0.809 0.809s-0.362 0.809-0.809 0.809v0z"></path>
<path d="M15.995 18.104c1.171 0 2.12-0.949 2.12-2.12s-0.949-2.12-2.12-2.12v0c-1.171 0-2.12 0.949-2.12 2.12s0.949 2.12 2.12 2.12v0z"></path>
</symbol>
<symbol id="icon-youtube" viewBox="0 0 32 32">
<path stroke-linejoin="miter" stroke-linecap="butt" stroke-miterlimit="4" stroke-width="0.9412" d="M9.412 0.471h13.176c4.938 0 8.941 4.003 8.941 8.941v13.176c0 4.938-4.003 8.941-8.941 8.941h-13.176c-4.938 0-8.941-4.003-8.941-8.941v-13.176c0-4.938 4.003-8.941 8.941-8.941z"></path>
<path d="M20.362 10.706c-0.72-0.042-2.202-0.085-4.447-0.085h-0.296c-2.16 0-3.6 0.042-4.32 0.127-0.974 0.085-1.652 0.339-2.033 0.678-0.339 0.296-0.593 0.847-0.678 1.567-0.042 0.466-0.085 1.44-0.085 2.922v0.212c0 1.398 0.042 2.372 0.127 2.838 0.127 0.678 0.339 1.186 0.762 1.482 0.424 0.339 1.144 0.551 2.16 0.635 0.72 0.042 2.202 0.085 4.447 0.085h0.296c2.16 0 3.6-0.042 4.32-0.127 0.974-0.085 1.652-0.339 2.033-0.678 0.339-0.296 0.593-0.847 0.678-1.567 0.042-0.466 0.085-1.44 0.085-2.922v-0.212c0-1.398-0.042-2.372-0.127-2.838-0.127-0.678-0.339-1.186-0.762-1.482-0.424-0.339-1.144-0.551-2.16-0.635zM18.711 15.915l-4.659 2.795v-5.591l4.659 2.795z"></path>
</symbol>
<symbol id="icon-menu" viewBox="0 0 32 32">
<path stroke-linejoin="round" stroke-linecap="round" stroke-miterlimit="4" stroke-width="2.3529" d="M4 11.334h24M4 20.666h24"></path>
</symbol>
<symbol id="icon-close" viewBox="0 0 32 32">
<path stroke-linejoin="round" stroke-linecap="round" stroke-miterlimit="4" stroke-width="2.3529" d="M24 8l-16 16M8 8l16 16"></path>
</symbol>
<symbol id="icon-checkmark" viewBox="0 0 32 32">
<path d="M27 4l-15 15-7-7-5 5 12 12 20-20z"></path>
</symbol>
</defs>
</svg>
